<svg width="30" height="34" xmlns="http://www.w3.org/2000/svg"><defs><filter x="-.7%" y="-11.3%" width="101.4%" height="126.8%" filterUnits="objectBoundingBox" id="a"><feOffset dy="2" in="SourceAlpha" result="shadowOffsetOuter1"/><feGaussianBlur stdDeviation="4" in="shadowOffsetOuter1" result="shadowBlurOuter1"/><feColorMatrix values="0 0 0 0 0 0 0 0 0 0 0 0 0 0 0 0 0 0 0.12 0" in="shadowBlurOuter1" result="shadowMatrixOuter1"/><feMerge><feMergeNode in="shadowMatrixOuter1"/><feMergeNode in="SourceGraphic"/></feMerge></filter></defs><g filter="url(#a)" transform="translate(-1765 -33)" fill="none" fill-rule="evenodd" opacity=".75"><path d="M1770 38h19.2v19.2H1770z"/><path d="M1781.068 38s.576 2.4.576 4.32c0 1.824-1.248 3.36-3.072 3.36s-3.264-1.536-3.264-3.36v-.288a12.476 12.476 0 0 0-2.88 7.968c0 3.936 3.264 7.2 7.2 7.2 3.936 0 7.2-3.264 7.2-7.2 0-4.896-2.208-9.216-5.76-12zm-1.44 16.32c-1.632 0-2.88-1.248-2.88-2.784 0-1.44.96-2.496 2.496-2.784 1.632-.288 3.264-1.056 4.128-2.304.384 1.152.576 2.4.576 3.648 0 2.304-1.92 4.224-4.32 4.224z" fill="#000" fill-rule="nonzero"/></g></svg>