<svg width="32" height="32" xmlns="http://www.w3.org/2000/svg"><defs><filter x="-.4%" y="-4.4%" width="100.7%" height="112.4%" filterUnits="objectBoundingBox" id="a"><feOffset dy="2" in="SourceAlpha" result="shadowOffsetOuter1"/><feGaussianBlur stdDeviation="2" in="shadowOffsetOuter1" result="shadowBlurOuter1"/><feColorMatrix values="0 0 0 0 0 0 0 0 0 0 0 0 0 0 0 0 0 0 0.5 0" in="shadowBlurOuter1" result="shadowMatrixOuter1"/><feMerge><feMergeNode in="shadowMatrixOuter1"/><feMergeNode in="SourceGraphic"/></feMerge></filter></defs><g filter="url(#a)" transform="translate(-1368 -43)" fill="#FFF" fill-rule="evenodd"><path d="M1384 69c-6.627 0-12-5.373-12-12s5.373-12 12-12 12 5.373 12 12-5.373 12-12 12zm-1.2-5.76c4.109 0 7.408-2.149 7.408-4.8 0-2.24-2.805-2.24-2.805-2.384 0-.145 1.397-1.446 0-2.255-1.396-.81-3.95.421-3.874.289 1.099-1.89-.472-2.487-1.272-2.487-1.908 0-6.897 4.186-6.897 6.837s3.331 4.8 7.44 4.8zm.194-1.47c-2.625.369-4.947-.716-5.187-2.422-.24-1.706 1.694-3.389 4.319-3.758 2.625-.369 4.947.716 5.187 2.422.24 1.706-1.694 3.389-4.319 3.758zm-.485-.465c1.561-.304 2.622-1.604 2.37-2.906-.254-1.3-1.724-2.11-3.286-1.806-1.561.304-2.622 1.604-2.369 2.905.253 1.302 1.724 2.11 3.285 1.807zm.051-2.385a.48.48 0 1 1 0-.96.48.48 0 0 1 0 .96zm-1.107 1.095c-.48.224-1.006.113-1.174-.247-.168-.36.085-.834.566-1.058.48-.224 1.006-.114 1.174.247.168.36-.085.834-.566 1.058zm7.772-7.37c-.867-.781-1.36-.51-1.36-.51-.544.036-.985.513-.985.885v-.82c0 .453.437.803 1.004.855 0 0 .3-.18.763.37.462.55.203.8.203.8-.112.532.243.964.797.964h-.989c.553 0 1.075-.433 1.109-.993 0 0 .325-.771-.542-1.552zm1.619-1.562c-1.59-1.504-2.945-1.223-2.945-1.223-.828-.033-1.499.612-1.499 1.223V49.8c0 .709.67 1.266 1.503 1.328 0 0 1.264-.297 2.218 1.072.954 1.37.587 2.102.587 2.102-.069.825.542 1.494 1.148 1.494h-1.272c.702 0 1.35-.67 1.373-1.498 0 0 .477-1.712-1.113-3.215z"/></g></svg>