<svg width="32" height="32" xmlns="http://www.w3.org/2000/svg"><defs><filter x="-.4%" y="-4.4%" width="100.7%" height="112.4%" filterUnits="objectBoundingBox" id="a"><feOffset dy="2" in="SourceAlpha" result="shadowOffsetOuter1"/><feGaussianBlur stdDeviation="2" in="shadowOffsetOuter1" result="shadowBlurOuter1"/><feColorMatrix values="0 0 0 0 0 0 0 0 0 0 0 0 0 0 0 0 0 0 0.5 0" in="shadowBlurOuter1" result="shadowMatrixOuter1"/><feMerge><feMergeNode in="shadowMatrixOuter1"/><feMergeNode in="SourceGraphic"/></feMerge></filter></defs><g filter="url(#a)" transform="translate(-1412 -43)" fill="#FFF"><path d="M1427.98 45c-6.616 0-11.98 5.364-11.98 11.98 0 6.617 5.364 11.981 11.98 11.981 6.617 0 11.981-5.364 11.981-11.98 0-6.617-5.364-11.981-11.98-11.981zm6.327 17.48l-.96.96c-.17.171-.672.278-.688.278a11.321 11.321 0 0 1-8.103-3.312 11.335 11.335 0 0 1-3.315-8.132c0-.001.11-.488.281-.658l.96-.959c.35-.353 1.025-.512 1.497-.354l.202.067c.471.158.965.679 1.096 1.159l.482 1.77c.13.482-.045 1.166-.396 1.517l-.64.64a6.804 6.804 0 0 0 4.783 4.786l.64-.64c.353-.353 1.037-.529 1.517-.399l1.771.485c.48.132 1 .623 1.158 1.094l.068.204c.156.471-.002 1.146-.353 1.495z"/></g></svg>