<svg width="40" height="40" xmlns="http://www.w3.org/2000/svg"><defs><filter x="-.7%" y="-11.3%" width="101.4%" height="126.8%" filterUnits="objectBoundingBox" id="a"><feOffset dy="2" in="SourceAlpha" result="shadowOffsetOuter1"/><feGaussianBlur stdDeviation="4" in="shadowOffsetOuter1" result="shadowBlurOuter1"/><feColorMatrix values="0 0 0 0 0 0 0 0 0 0 0 0 0 0 0 0 0 0 0.12 0" in="shadowBlurOuter1" result="shadowMatrixOuter1"/><feMerge><feMergeNode in="shadowMatrixOuter1"/><feMergeNode in="SourceGraphic"/></feMerge></filter></defs><g filter="url(#a)" transform="translate(-1625 -30)" fill="#FF5200"><path d="M1645 36c-6.627 0-12 5.373-12 12s5.373 12 12 12 12-5.373 12-12c0-6.628-5.373-12-12-12zm.829 13.467c-.001.032-.006.063-.01.095-.003.023-.005.048-.01.07-.006.025-.015.05-.023.073a.724.724 0 0 1-.03.086l-.005.015a.823.823 0 0 1-.062.11l-.005.005a.826.826 0 0 1-.087.106l-.027.026a.795.795 0 0 1-.088.072l-.028.02a.83.83 0 0 1-.125.068c-.009.005-.019.007-.028.01a.834.834 0 0 1-.302.06c-.01 0-.02-.004-.03-.004a.835.835 0 0 1-.142-.016c-.014-.003-.028-.009-.043-.013a.842.842 0 0 1-.124-.042c-.005-.003-.01-.003-.014-.005l-4.601-2.17a.83.83 0 0 1 .708-1.502l3.417 1.612V40.98a.83.83 0 0 1 1.66 0v8.472l-.001.015z"/></g></svg>