<svg width="30" height="30" xmlns="http://www.w3.org/2000/svg"><path d="M14.896 0C6.683 0 .001 6.683.001 14.896c0 8.214 6.682 14.896 14.895 14.896s14.896-6.682 14.896-14.896C29.792 6.683 23.11 0 14.896 0zm8.59 23.106v-.587c0-2.032-2.348-2.773-3.604-3.31a59.864 59.864 0 0 1-2.192-1.037c-.297-.146-.565-.533-.598-.863l-.098-.963c.674-.627 1.28-1.5 1.383-2.473h.152c.238 0 .463-.179.499-.398l.238-1.471c.032-.315-.265-.506-.506-.506a5.2 5.2 0 0 0 .076-.604c.015-.133.027-.272.034-.415.025-.695-.092-1.303-.287-1.643a3.896 3.896 0 0 0-.916-1.334c-1.163-1.101-2.513-1.53-3.664-.645-.783-.135-1.714.223-2.387 1.01a3.146 3.146 0 0 0-.694 1.407 4.46 4.46 0 0 0-.16 1.063 4.3 4.3 0 0 0 .109 1.168.492.492 0 0 0-.459.5l.238 1.472c.035.219.26.397.5.397h.135a4.94 4.94 0 0 0 1.394 2.52l-.093.93c-.034.33-.302.716-.6.863-.85.415-1.688.814-2.19 1.021-1.182.488-3.603 1.279-3.603 3.31v.46a11.838 11.838 0 0 1-3.19-8.08c0-6.56 5.336-11.896 11.896-11.896 6.56 0 11.895 5.337 11.895 11.896a11.859 11.859 0 0 1-3.309 8.208z" fill="#FFF"/></svg>