<svg width="32" height="32" xmlns="http://www.w3.org/2000/svg"><defs><filter x="-.4%" y="-4.4%" width="100.7%" height="112.4%" filterUnits="objectBoundingBox" id="a"><feOffset dy="2" in="SourceAlpha" result="shadowOffsetOuter1"/><feGaussianBlur stdDeviation="2" in="shadowOffsetOuter1" result="shadowBlurOuter1"/><feColorMatrix values="0 0 0 0 0 0 0 0 0 0 0 0 0 0 0 0 0 0 0.5 0" in="shadowBlurOuter1" result="shadowMatrixOuter1"/><feMerge><feMergeNode in="shadowMatrixOuter1"/><feMergeNode in="SourceGraphic"/></feMerge></filter></defs><g filter="url(#a)" transform="translate(-1324 -43)" fill="#FFF" fill-rule="evenodd"><path d="M1343.336 55.084c-.26-2.425-2.621-4.324-5.496-4.324-3.049 0-5.52 2.136-5.52 4.77 0 1.574.882 2.97 2.242 3.839.152.097-.506 1.467-.342 1.55.275.141 1.382-1.018 1.685-.92a6.402 6.402 0 0 0 2.935.223c.64 1.46 2.315 2.503 4.28 2.503a5.35 5.35 0 0 0 1.53-.221c.158-.047 1.221.887 1.37.826.241-.098-.44-1.201-.225-1.332 1.142-.695 1.885-1.822 1.885-3.096 0-2.05-1.926-3.723-4.344-3.818zm-.962.047c-2.164.299-3.814 1.873-3.814 3.771 0 .141.01.28.027.418a5.455 5.455 0 0 1-.747.051c-.637 0-1.243-.11-1.793-.307-.055-.02-.25-.079-.357 0-.238.177-.557.545-.557.545s.117-.268.156-.659c.018-.178-.255-.304-.309-.34-1.037-.702-1.7-1.86-1.7-3.064 0-2.113 2.042-3.826 4.56-3.826 2.351 0 4.287 1.493 4.534 3.411zM1340 69c-6.627 0-12-5.373-12-12s5.373-12 12-12 12 5.373 12 12-5.373 12-12 12zm-4.08-14.4a.72.72 0 1 0 0-1.44.72.72 0 0 0 0 1.44zm3.84 0a.72.72 0 1 0 0-1.44.72.72 0 0 0 0 1.44zm1.68 3.36a.48.48 0 1 1 0-.96.48.48 0 0 1 0 .96zm2.88 0a.48.48 0 1 1 0-.96.48.48 0 0 1 0 .96z"/></g></svg>