<svg width="100" height="40" xmlns="http://www.w3.org/2000/svg"><g fill="#FFF" fill-rule="evenodd"><path d="M50.521 21.192h-1.76c-.391-1.171-1.007-1.908-1.845-2.208 1.817-.24 2.823.029 3.018.812.168.329.363.796.587 1.396m-7.629 0h-1.76a13.9 13.9 0 0 1 .587-1.396c.197-.783 1.202-1.052 3.019-.812-.84.3-1.455 1.037-1.846 2.208m2.14-10.053h1.718c-.029.419-.084.81-.169 1.171h3.815v.406h-3.858c-.055.36-.125.706-.209 1.037h3.647v.406h-3.772a3.81 3.81 0 0 1-.545.947h5.198v.405h-2.432c.783.931 1.69 1.609 2.725 2.03a25.88 25.88 0 0 1-1.634.044 6.677 6.677 0 0 1-.211.406c-.14.572-.95.753-2.43.54v1.58c.055 1.202-.476 1.772-1.594 1.712-.754 0-1.425-.421-2.012-1.262.308.12.645.181 1.007.181.558.09.81-.287.755-1.127v-3.292h1.844v2.209c.391-.21.74-.69 1.048-1.443-.056 0-.113-.029-.169-.09-.223-.21-.572-.6-1.048-1.172a1.458 1.458 0 0 1-.293-.316h-1.089c-.196.24-.531.6-1.007 1.082.364-.36.337-.345-.084.046a1.963 1.963 0 0 1-.502.406c.363.812.726 1.308 1.09 1.487-1.509.212-2.333.03-2.473-.54a1.63 1.63 0 0 1-.209-.451c-.223 0-.63-.016-1.216-.046a1.779 1.779 0 0 0-.336-.044 15.288 15.288 0 0 0 2.432-1.94h-2.221v-.405h2.64c.336-.332.6-.647.795-.947h-2.64v-.406h2.934c.057-.15.098-.271.127-.362.055-.24.096-.465.125-.675h-3.605v-.406h3.647c.028-.121.07-.33.126-.63.027-.241.055-.422.084-.541m13.533 4.372h1.719c-.14 1.172-.419 2.615-.839 4.329-.111.872-.935 1.277-2.471 1.218.53-.391 1.06-2.24 1.591-5.547m5.156 0h1.719c.53 3.308 1.061 5.156 1.593 5.547-1.538.06-2.362-.346-2.473-1.218-.42-1.714-.7-3.157-.84-4.329m-4.861-4.419H60.7c-.055.3-.18.722-.375 1.262a1.78 1.78 0 0 1-.084.316c.307-.39.825-.585 1.55-.585h3.437c.95-.03 1.41.331 1.383 1.081 0 .812-.126 1.399-.378 1.759h-1.969c.39-.3.573-.872.544-1.713.029-.452-.279-.662-.92-.63h-2.306c-.56-.032-1.062.15-1.51.54-.028.06-.054.135-.083.225-.084.21-.14.36-.168.45-.111.903-1.048 1.309-2.808 1.218.642-.481 1.258-1.789 1.844-3.923m2.39 8.748v-6.268h1.76v6.855c.027.961-.435 1.427-1.384 1.396-1.005 0-1.745-.435-2.22-1.306.334.15.71.225 1.13.225.503.029.742-.271.713-.902m15.757-2.345v-4.87h1.341v5.457c.027.091.07.21.125.36.029.062.099.227.21.497V12.67c.028-.66-.195-.962-.671-.9h-.503c-.475-.031-.769.225-.88.765v6.449c.251-.753.378-1.249.378-1.49zm4.233 2.03h-1.09v-7.62h1.09v7.62zm.334.225v-8.611h1.384v9.422c0 .872-.391 1.309-1.173 1.309-.867.059-1.509-.362-1.928-1.264.335.121.698.18 1.09.18.475.09.684-.256.627-1.036zm-8.297-8.567h1.425c.027.33.084.766.166 1.308 0-.062.015 0 .043.179.111.633.294 1.008.545 1.127v-2.48h1.173v.768c.056-.542.35-.797.88-.767h1.09c.838-.03 1.244.42 1.216 1.352v6.268h-1.132c.727 1.654 1.256 2.616 1.593 2.885-1.257.122-1.942-.075-2.055-.584a12.58 12.58 0 0 0-.293-.587 3.232 3.232 0 0 0-.293-.587c-.167.362-.334.721-.503 1.083-.168.541-.894.766-2.18.675.253-.21.615-.675 1.091-1.396.056-.15.154-.377.293-.677l.25-.676h-1.13v-1.623c-.28.24-.46.811-.545 1.712-.113.933-.209 1.82-.293 2.66h-1.425c.028-.24.055-.584.084-1.037.084-.63.14-1.142.168-1.533.027-1.352.698-1.984 2.011-1.893v-.45c-1.425.179-2.124-.256-2.095-1.308-.029-.181-.07-.496-.127-.947a5.49 5.49 0 0 0-.082-.542h1.423c.057.42.127.917.21 1.489.112.662.335 1.081.671 1.262v-2.976c-1.285.12-1.941-.285-1.97-1.218a15.32 15.32 0 0 1-.21-1.487zm16.761.135h1.593c.027.09.07.211.125.361.11.422.21.737.294.947.139.3.348.615.63.946-1.455.24-2.224-.106-2.308-1.037-.082-.21-.18-.54-.293-.992a.821.821 0 0 1-.041-.225zm2.891 1.667h1.426c.084 1.264.125 2.226.125 2.886.028.662.196 1.174.504 1.533-1.259.031-1.887-.39-1.887-1.262a57.392 57.392 0 0 1-.168-3.157zm4.694.047h1.426c0 .24-.014.586-.041 1.037a91.326 91.326 0 0 1-.084 2.073c-.029.903-.67 1.324-1.928 1.262.305-.33.474-.84.502-1.533a53.39 53.39 0 0 0 .125-2.84zm-7.376 7.53v-4.78c.055-.692-.11-.992-.502-.902h-.419v-.452h1.55c.67-.029 1.006.362 1.006 1.174v4.148c0 .42.07.63.209.63.28-.119.658-.57 1.132-1.352-.195 1.743-.839 2.646-1.928 2.705-.7.03-1.048-.36-1.048-1.172zm6.538 1.261h-1.635v-3.291h-2.43v-.406h2.43v-6.087h-2.305v-.36h6.413v.36H96.78v6.087h2.725v.406H96.78v3.291z" fill-rule="nonzero"/><path d="M.12 9.841v8.146l16.563-9.571 16.564 9.571v-8.35L16.819.067.119 9.841zM.013 30.358l7.167 4.057v-17.47L.013 20.822v9.536zm12.77-16.574v24.099l4.104 2.098 3.598-2.104v-24.04l-3.937-2.299-3.764 2.246zm20.464 16.574v-9.536l-7.167-3.877v17.47l7.167-4.057z"/><path d="M51.701 32.958l2.15.108c-.101.788-.448 1.393-1.042 1.814-.592.422-1.32.632-2.187.632-1.04 0-1.88-.289-2.52-.868-.64-.578-.96-1.375-.96-2.394 0-1.008.303-1.822.91-2.44.606-.619 1.451-.93 2.538-.93 1.013 0 1.793.237 2.338.708.544.472.853 1.097.923 1.876l-2.196.098c0-.43-.098-.74-.293-.933a.966.966 0 0 0-.694-.286c-.742 0-1.111.624-1.111 1.875 0 .7.096 1.176.289 1.427.192.253.462.378.81.378.622 0 .97-.355 1.045-1.065m6.772-2.437v4.892h-2.23V30.52h-1.588v-1.54h5.406v1.54zm6.018 0v4.892h-2.229V30.52h-1.589v-1.54h5.407v1.54zm8.242 3.314v1.578H67.36V28.98h2.351v4.854zm7.197.042v1.536h-5.765V28.98h5.765v1.484h-3.458v.933h2.796v1.428h-2.796v1.05zm3.896-2.3h1.007c.295 0 .532-.052.713-.155a.502.502 0 0 0 .268-.458c0-.41-.301-.617-.903-.617h-1.085v1.23zm4.47 3.836h-2.61l-1.118-2.46h-.742v2.46h-2.35V28.98h4.002c.882 0 1.568.173 2.057.52.489.348.734.805.734 1.374 0 .37-.09.698-.27.983-.18.283-.543.534-1.09.751l1.387 2.804z" fill-rule="nonzero"/></g></svg>