<svg width="148" height="113" xmlns="http://www.w3.org/2000/svg"><defs><filter x="-.7%" y="-11.3%" width="101.4%" height="126.8%" filterUnits="objectBoundingBox" id="a"><feOffset dy="2" in="SourceAlpha" result="shadowOffsetOuter1"/><feGaussianBlur stdDeviation="4" in="shadowOffsetOuter1" result="shadowBlurOuter1"/><feColorMatrix values="0 0 0 0 0 0 0 0 0 0 0 0 0 0 0 0 0 0 0.12 0" in="shadowBlurOuter1" result="shadowMatrixOuter1"/><feMerge><feMergeNode in="shadowMatrixOuter1"/><feMergeNode in="SourceGraphic"/></feMerge></filter></defs><g filter="url(#a)" transform="translate(0 6)" fill="none" fill-rule="evenodd"><g transform="translate(-22 -33)"><circle fill="#FF5200" cx="81" cy="81" r="81"/><g fill="#FFF" fill-rule="nonzero"><path d="M101.75 63.732c-20.963 0-38.018 17.055-38.018 38.019 0 20.963 17.055 38.249 38.019 38.249C122.714 140 140 122.714 140 101.75c0-20.963-17.286-38.018-38.25-38.018zm10.37 24.194a3.454 3.454 0 0 1 3.456-3.457 3.454 3.454 0 0 1 3.456 3.457v6.912a3.454 3.454 0 0 1-3.456 3.456 3.454 3.454 0 0 1-3.457-3.456v-6.912zm-27.65 0a3.454 3.454 0 0 1 3.456-3.457 3.454 3.454 0 0 1 3.456 3.457v6.912a3.454 3.454 0 0 1-3.456 3.456 3.454 3.454 0 0 1-3.457-3.456v-6.912zm34.386 24.018c-4.566 4.57-10.642 7.088-17.105 7.088-6.464 0-12.54-2.518-17.106-7.088a3.455 3.455 0 1 1 4.887-4.888c6.528 6.528 17.91 6.528 24.437 0a3.455 3.455 0 1 1 4.887 4.888z"/><path d="M72.486 68.088c7.048-6.139 15.916-10.242 25.782-11.035C96.596 37.576 80.235 22 60.333 22 39.323 22 22 39.323 22 60.333c0 19.902 15.576 36.263 35.053 37.935.765-9.521 4.627-18.102 10.404-25.032-6.375-2.758-14.314-1.654-19.37 3.4a3.463 3.463 0 1 1-4.897-4.897c7.665-7.671 20.074-8.828 29.296-3.651zm-1.762-21.61a3.462 3.462 0 0 1 3.464-3.464 3.462 3.462 0 0 1 3.464 3.464v6.927a3.462 3.462 0 0 1-3.464 3.464 3.462 3.462 0 0 1-3.464-3.464v-6.927zm-27.71 0a3.462 3.462 0 0 1 3.464-3.464 3.462 3.462 0 0 1 3.463 3.464v6.927a3.462 3.462 0 0 1-3.463 3.464 3.462 3.462 0 0 1-3.464-3.464v-6.927z"/></g></g></g></svg>