<?xml version="1.0" encoding="UTF-8"?>
<svg width="24px" height="24px" viewBox="0 0 24 24" version="1.1" xmlns="http://www.w3.org/2000/svg" xmlns:xlink="http://www.w3.org/1999/xlink">
    <!-- Generator: Sketch 49 (51002) - http://www.bohemiancoding.com/sketch -->
    <title>musica-searcher</title>
    <desc>Created with Sketch.</desc>
    <defs></defs>
    <g id="Symbols" stroke="none" stroke-width="1" fill="none" fill-rule="evenodd">
        <g id="header" transform="translate(-1802.000000, -18.000000)" fill="#FFFFFF">
            <g id="Group-31">
                <g>
                    <g id="Group-3">
                        <g id="naver">
                            <g id="musica-searcher" transform="translate(1802.000000, 18.000000)">
                                <path d="M23.3484622,20.5199044 L18.1488765,15.3204143 C18.121243,15.2927809 18.0888287,15.2734661 18.0599522,15.247745 C19.0830598,13.6957769 19.6801912,11.8380239 19.6801912,9.84019124 C19.6801912,4.40557769 15.2746135,0 9.84009562,0 C4.40557769,0 0,4.40557769 0,9.84009562 C0,15.2745179 4.40548207,19.6801912 9.84,19.6801912 C11.8379283,19.6801912 13.6955857,19.0830598 15.2475538,18.0599522 C15.2732749,18.0887331 15.292494,18.1211474 15.3201275,18.1487809 L20.5198088,23.3484622 C21.3009084,24.1294661 22.5672669,24.1294661 23.3484622,23.3484622 C24.1294661,22.5673625 24.1294661,21.301004 23.3484622,20.5199044 Z M9.84009562,16.2689402 C6.28943426,16.2689402 3.41115538,13.3906614 3.41115538,9.84009562 C3.41115538,6.28943426 6.28952988,3.41115538 9.84009562,3.41115538 C13.3905657,3.41115538 16.2689402,6.28952988 16.2689402,9.84009562 C16.2689402,13.3906614 13.3905657,16.2689402 9.84009562,16.2689402 Z" id="Shape"></path>
                            </g>
                        </g>
                    </g>
                </g>
            </g>
        </g>
    </g>
</svg>