<?xml version="1.0" encoding="UTF-8"?>
<svg width="32px" height="32px" viewBox="0 0 32 32" version="1.1" xmlns="http://www.w3.org/2000/svg" xmlns:xlink="http://www.w3.org/1999/xlink">
    <!-- Generator: Sketch 49 (51002) - http://www.bohemiancoding.com/sketch -->
    <title>wechat_F</title>
    <desc>Created with Sketch.</desc>
    <defs>
        <filter x="-0.4%" y="-4.4%" width="100.7%" height="112.4%" filterUnits="objectBoundingBox" id="filter-1">
            <feOffset dx="0" dy="2" in="SourceAlpha" result="shadowOffsetOuter1"></feOffset>
            <feGaussianBlur stdDeviation="2" in="shadowOffsetOuter1" result="shadowBlurOuter1"></feGaussianBlur>
            <feColorMatrix values="0 0 0 0 0   0 0 0 0 0   0 0 0 0 0  0 0 0 0.5 0" type="matrix" in="shadowBlurOuter1" result="shadowMatrixOuter1"></feColorMatrix>
            <feMerge>
                <feMergeNode in="shadowMatrixOuter1"></feMergeNode>
                <feMergeNode in="SourceGraphic"></feMergeNode>
            </feMerge>
        </filter>
    </defs>
    <g id="Desktop" stroke="none" stroke-width="1" fill="none" fill-rule="evenodd">
        <g id="资讯列表" transform="translate(-1324.000000, -1469.000000)" fill="#FFFFFF">
            <g id="footer" transform="translate(0.000000, 1426.000000)">
                <g id="Group-19" filter="url(#filter-1)">
                    <g id="Group-26" transform="translate(1328.000000, 45.000000)">
                        <path d="M15.336191,10.08422 C15.0759557,7.65882345 12.714579,5.76 9.84,5.76 C6.79138803,5.76 4.32,7.89570074 4.32,10.5302214 C4.32,12.1039974 5.2019085,13.4997707 6.56194859,14.3686093 C6.71432309,14.4659512 6.05625191,15.836033 6.22006183,15.9196557 C6.49501492,16.0600156 7.60172408,14.9010044 7.90460945,14.9990101 C8.50686631,15.1938844 9.15903318,15.3004428 9.84,15.3004428 C10.1812151,15.3004428 10.5151992,15.2736886 10.8392965,15.2224752 C11.4805399,16.6829379 13.1551438,17.7246153 15.12,17.7246153 C15.6570304,17.7246153 16.1723782,17.6467992 16.6508709,17.503885 C16.8079801,17.4569602 17.8712151,18.3906971 18.0198406,18.3301863 C18.2609819,18.232009 17.5801509,17.1288624 17.7952519,16.9980287 C18.9373089,16.3033802 19.68,15.1755453 19.68,13.9023077 C19.68,11.8520523 17.7542266,10.1788213 15.336191,10.08422 Z M14.3735333,10.1309632 C12.2102163,10.4295623 10.56,12.0043969 10.56,13.9023077 C10.56,14.0434606 10.5691279,14.1828265 10.5869158,14.3200132 C10.3438836,14.3536079 10.0943742,14.3710816 9.84,14.3710816 C9.2034165,14.3710816 8.59729969,14.2616483 8.04692073,14.0639825 C7.9920199,14.0442651 7.79624784,13.9851961 7.69034088,14.0639827 C7.45226672,14.2410915 7.133023,14.6087165 7.133023,14.6087165 C7.133023,14.6087165 7.24989674,14.3410332 7.28907193,13.9501343 C7.30697193,13.7715239 7.03437455,13.6462864 6.97997152,13.6094885 C5.94323378,12.9082458 5.28,11.7497609 5.28,10.5455408 C5.28,8.43275285 7.32158142,6.72 9.84,6.72 C12.1914466,6.72 14.127189,8.21316955 14.3735333,10.1309632 Z M12,24 C5.37258267,24 0,18.6274173 0,12 C0,5.37258267 5.37258267,0 12,0 C18.6274173,0 24,5.37258267 24,12 C24,18.6274173 18.6274173,24 12,24 Z M7.92,9.6 C8.31764504,9.6 8.64,9.27764504 8.64,8.88 C8.64,8.48235496 8.31764504,8.16 7.92,8.16 C7.52235496,8.16 7.2,8.48235496 7.2,8.88 C7.2,9.27764504 7.52235496,9.6 7.92,9.6 Z M11.76,9.6 C12.157645,9.6 12.48,9.27764504 12.48,8.88 C12.48,8.48235496 12.157645,8.16 11.76,8.16 C11.362355,8.16 11.04,8.48235496 11.04,8.88 C11.04,9.27764504 11.362355,9.6 11.76,9.6 Z M13.44,12.96 C13.1749033,12.96 12.96,12.7450967 12.96,12.48 C12.96,12.2149033 13.1749033,12 13.44,12 C13.7050967,12 13.92,12.2149033 13.92,12.48 C13.92,12.7450967 13.7050967,12.96 13.44,12.96 Z M16.32,12.96 C16.0549033,12.96 15.84,12.7450967 15.84,12.48 C15.84,12.2149033 16.0549033,12 16.32,12 C16.5850967,12 16.8,12.2149033 16.8,12.48 C16.8,12.7450967 16.5850967,12.96 16.32,12.96 Z" id="wechat_F"></path>
                    </g>
                </g>
            </g>
        </g>
    </g>
</svg>