<?xml version="1.0" encoding="UTF-8"?>
<svg width="32px" height="32px" viewBox="0 0 32 32" version="1.1" xmlns="http://www.w3.org/2000/svg" xmlns:xlink="http://www.w3.org/1999/xlink">
    <!-- Generator: Sketch 49 (51002) - http://www.bohemiancoding.com/sketch -->
    <title>sina_weibo_F</title>
    <desc>Created with Sketch.</desc>
    <defs>
        <filter x="-0.4%" y="-4.4%" width="100.7%" height="112.4%" filterUnits="objectBoundingBox" id="filter-1">
            <feOffset dx="0" dy="2" in="SourceAlpha" result="shadowOffsetOuter1"></feOffset>
            <feGaussianBlur stdDeviation="2" in="shadowOffsetOuter1" result="shadowBlurOuter1"></feGaussianBlur>
            <feColorMatrix values="0 0 0 0 0   0 0 0 0 0   0 0 0 0 0  0 0 0 0.5 0" type="matrix" in="shadowBlurOuter1" result="shadowMatrixOuter1"></feColorMatrix>
            <feMerge>
                <feMergeNode in="shadowMatrixOuter1"></feMergeNode>
                <feMergeNode in="SourceGraphic"></feMergeNode>
            </feMerge>
        </filter>
    </defs>
    <g id="Desktop" stroke="none" stroke-width="1" fill="none" fill-rule="evenodd">
        <g id="资讯列表" transform="translate(-1368.000000, -1469.000000)" fill="#FFFFFF">
            <g id="footer" transform="translate(0.000000, 1426.000000)">
                <g id="Group-19" filter="url(#filter-1)">
                    <g id="Group-26" transform="translate(1328.000000, 45.000000)">
                        <g id="Group-25" transform="translate(44.000000, 0.000000)">
                            <path d="M12,24 C5.37258267,24 0,18.6274173 0,12 C0,5.37258267 5.37258267,0 12,0 C18.6274173,0 24,5.37258267 24,12 C24,18.6274173 18.6274173,24 12,24 Z M10.8,18.24 C14.9089987,18.24 18.2079417,16.0909669 18.2079419,13.44 C18.2079419,11.2004645 15.4034134,11.2004645 15.4034134,11.0559009 C15.4034134,10.9113373 16.8,9.61026764 15.4034134,8.80071281 C14.0068268,7.99115799 11.4522949,9.22197918 11.5291159,9.08983955 C12.6277972,7.2 11.0574219,6.60334991 10.2569582,6.60334991 C8.34872177,6.60334991 3.36,10.7890331 3.36,13.44 C3.36,16.0909669 6.69100126,18.24 10.8,18.24 Z M10.9942201,16.7696364 C8.36905217,17.1385797 6.04652641,16.05439 5.80671327,14.3480309 C5.56690013,12.6416717 7.50061202,10.9593069 10.1257799,10.5903636 C12.7509478,10.2214203 15.0734736,11.30561 15.3132867,13.0119691 C15.5530999,14.7183283 13.619388,16.4006931 10.9942201,16.7696364 Z M10.5090289,16.3048179 C12.0703856,16.0013209 13.1310878,14.7005134 12.8781736,13.3993828 C12.6252595,12.0982522 11.1545025,11.2895104 9.59314574,11.5930074 C8.03178902,11.8965044 6.97108687,13.197312 7.22400104,14.4984426 C7.47691521,15.7995732 8.9476722,16.6083149 10.5090289,16.3048179 Z M10.56,13.92 C10.2949033,13.92 10.08,13.7050967 10.08,13.44 C10.08,13.1749033 10.2949033,12.96 10.56,12.96 C10.8250967,12.96 11.04,13.1749033 11.04,13.44 C11.04,13.7050967 10.8250967,13.92 10.56,13.92 Z M9.45319782,15.0149303 C8.97267942,15.2389997 8.44690925,15.128491 8.27885719,14.7681022 C8.11080514,14.4077134 8.36410913,13.9339165 8.84462752,13.7098471 C9.32514592,13.4857777 9.85091609,13.5962864 10.0189681,13.9566752 C10.1870202,14.317064 9.93371621,14.7908609 9.45319782,15.0149303 Z M17.2249113,7.64420603 C16.3575314,6.86356387 15.8642147,7.13587361 15.8642147,7.13587361 C15.3206479,7.17128964 14.88,7.64842613 14.88,8.02007073 L14.88,7.2 C14.88,7.65291256 15.3170063,8.00329917 15.8843842,8.0553646 C15.8843842,8.0553646 16.1840554,7.87550754 16.646658,8.42484816 C17.1092606,8.97418882 16.8499501,9.22429475 16.8499501,9.22429475 C16.737675,9.75682222 17.0934568,10.188521 17.6472369,10.1885209 L16.6580226,10.188521 C17.210627,10.188521 17.7327184,9.75564267 17.7670039,9.19646553 C17.7670039,9.19646553 18.0922913,8.42484819 17.2249113,7.64420603 Z M18.844021,6.08292182 C17.2538243,4.57946279 15.8987676,4.86020282 15.8987676,4.86020282 C15.0710211,4.82695372 14.4,5.4715196 14.4,6.08292182 L14.4,4.8 C14.4,5.50853816 15.0708976,6.06618841 15.9028078,6.12793168 C15.9028078,6.12793168 17.1670861,5.83058867 18.1212041,7.20000011 C19.0753221,8.56941158 18.7079719,9.30249853 18.7079719,9.30249853 C18.6393973,10.1271637 19.249692,10.7956868 19.8559644,10.7956868 L18.5838066,10.7956868 C19.2863999,10.7956868 19.9333364,10.1267702 19.9570426,9.29836174 C19.9570426,9.29836174 20.4342178,7.58638072 18.844021,6.08292182 Z" id="sina_weibo_F"></path>
                        </g>
                    </g>
                </g>
            </g>
        </g>
    </g>
</svg>