<?xml version="1.0" encoding="UTF-8"?>
<svg width="40px" height="40px" viewBox="0 0 40 40" version="1.1" xmlns="http://www.w3.org/2000/svg" xmlns:xlink="http://www.w3.org/1999/xlink">
    <!-- Generator: Sketch 49 (51002) - http://www.bohemiancoding.com/sketch -->
    <title>clock</title>
    <desc>Created with Sketch.</desc>
    <defs>
        <filter x="-0.7%" y="-11.3%" width="101.4%" height="126.8%" filterUnits="objectBoundingBox" id="filter-1">
            <feOffset dx="0" dy="2" in="SourceAlpha" result="shadowOffsetOuter1"></feOffset>
            <feGaussianBlur stdDeviation="4" in="shadowOffsetOuter1" result="shadowBlurOuter1"></feGaussianBlur>
            <feColorMatrix values="0 0 0 0 0   0 0 0 0 0   0 0 0 0 0  0 0 0 0.12 0" type="matrix" in="shadowBlurOuter1" result="shadowMatrixOuter1"></feColorMatrix>
            <feMerge>
                <feMergeNode in="shadowMatrixOuter1"></feMergeNode>
                <feMergeNode in="SourceGraphic"></feMergeNode>
            </feMerge>
        </filter>
    </defs>
    <g id="Desktop" stroke="none" stroke-width="1" fill="none" fill-rule="evenodd">
        <g id="测评列表" transform="translate(-1625.000000, -90.000000)" fill="#FF5200" fill-rule="nonzero">
            <g id="Group-10" filter="url(#filter-1)" transform="translate(0.000000, 60.000000)">
                <g transform="translate(-22.000000, -33.000000)" id="Group-8">
                    <g transform="translate(1655.000000, 69.000000)">
                        <g id="Group-5">
                            <g id="clock">
                                <path d="M11.99988,0 C5.37256954,0 0,5.37267582 0,11.99968 C0,18.6266842 5.37256954,24 11.9998,24 C18.6270305,24 24,18.6269242 24,11.99968 C24,5.37243582 18.6271105,0 11.99988,0 Z M12.8285338,13.4670498 C12.8278938,13.49857 12.8231737,13.5300902 12.8187736,13.5616904 C12.8156536,13.5853706 12.8142136,13.6096107 12.8088535,13.6328909 C12.8034934,13.657131 12.7942932,13.6810512 12.7864531,13.7052914 C12.777093,13.7345716 12.7683728,13.7637718 12.7561326,13.7913719 C12.7538126,13.796172 12.7530126,13.801292 12.7509325,13.806092 C12.7328522,13.8446523 12.7118919,13.8808125 12.6889315,13.9150528 C12.6874915,13.9171328 12.6855714,13.9192128 12.6841314,13.9212928 C12.657971,13.9596931 12.6281305,13.9945733 12.5967699,14.0272935 C12.5880498,14.0362536 12.5791697,14.0443336 12.5699695,14.0528137 C12.542369,14.0791339 12.5133286,14.103214 12.482448,14.1252142 C12.4729279,14.1320942 12.4638077,14.1392943 12.4538076,14.1459343 C12.4142069,14.1718545 12.3726862,14.1946546 12.3294855,14.2133748 C12.3201253,14.2175348 12.3103652,14.2200148 12.300845,14.2237748 C12.2643644,14.2378549 12.2274038,14.249535 12.1892432,14.2584151 C12.1755629,14.2616951 12.1620427,14.2646551 12.1481225,14.2671351 C12.0991617,14.2760952 12.0495608,14.2822552 11.99932,14.2822552 C11.9891598,14.2822552 11.9787596,14.2791352 11.9685995,14.2787352 C11.9204387,14.2768952 11.8727579,14.2731352 11.8269171,14.2633751 C11.8125969,14.2602551 11.7985166,14.254015 11.7841964,14.250095 C11.7414757,14.2384949 11.699715,14.2256148 11.6598743,14.2077747 C11.6553143,14.2054547 11.6505142,14.2050547 11.6459541,14.2029747 L7.04467741,12.0326402 C6.6301105,11.8371989 6.45250754,11.3425556 6.6479508,10.9279929 C6.84339406,10.5136701 7.3380423,10.3358289 7.75260921,10.5312702 L11.1699462,12.142801 L11.1699462,4.9799532 C11.1699462,4.52163014 11.5415524,4.15002767 11.99988,4.15002767 C12.4582076,4.15002767 12.8298138,4.52163014 12.8298138,4.9799532 L12.8298138,13.4520897 L12.8299738,13.4520897 C12.8299738,13.4570497 12.8285338,13.4620097 12.8285338,13.4670498 Z" id="Shape"></path>
                            </g>
                        </g>
                    </g>
                </g>
            </g>
        </g>
    </g>
</svg>