<?xml version="1.0" encoding="UTF-8"?>
<svg width="30px" height="30px" viewBox="0 0 30 30" version="1.1" xmlns="http://www.w3.org/2000/svg" xmlns:xlink="http://www.w3.org/1999/xlink">
    <!-- Generator: Sketch 49 (51002) - http://www.bohemiancoding.com/sketch -->
    <title>user-avatar-main-picture</title>
    <desc>Created with Sketch.</desc>
    <defs></defs>
    <g id="Symbols" stroke="none" stroke-width="1" fill="none" fill-rule="evenodd">
        <g id="header" transform="translate(-1858.000000, -15.000000)" fill="#FFFFFF" fill-rule="nonzero">
            <g id="Group-31">
                <g>
                    <g id="Group-3">
                        <g id="naver">
                            <g id="user-avatar-main-picture" transform="translate(1858.000000, 15.000000)">
                                <path d="M14.8962,0 C6.6828,0 0.0006,6.6828 0.0006,14.8962 C0.0006,23.1096 6.6828,29.7924 14.8962,29.7924 C23.109,29.7924 29.7918,23.1096 29.7918,14.8962 C29.7918,6.6828 23.1102,0 14.8962,0 Z M23.4852,23.106 C23.4852,22.7616 23.4852,22.5186 23.4852,22.5186 C23.4852,20.487 21.138,19.746 19.8816,19.2084 C19.4268,19.0146 18.5694,18.6018 17.6898,18.1716 C17.3928,18.0264 17.1252,17.6394 17.0916,17.3088 L16.9944,16.3464 C17.6676,15.7194 18.2742,14.8464 18.3768,13.8732 L18.5286,13.8732 C18.7674,13.8732 18.9924,13.6944 19.0278,13.4754 L19.266,12.0036 C19.2978,11.6892 19.0008,11.4984 18.7602,11.4984 C18.7668,11.4672 18.7722,11.4354 18.7752,11.409 C18.8058,11.232 18.8244,11.061 18.8364,10.8948 C18.8514,10.761 18.8634,10.6224 18.87,10.479 C18.8952,9.7842 18.7776,9.1764 18.5826,8.8362 C18.3846,8.3604 18.0846,7.8984 17.667,7.5024 C16.5036,6.4008 15.1542,5.9718 14.0034,6.8574 C13.2198,6.7218 12.2886,7.08 11.616,7.8678 C11.2488,8.298 11.0202,8.79 10.9224,9.2742 C10.8348,9.576 10.7766,9.9414 10.7622,10.3368 C10.7466,10.7766 10.7898,11.1792 10.8708,11.505 C10.6416,11.5194 10.4124,11.7078 10.4124,12.0048 L10.65,13.4766 C10.6854,13.6956 10.9104,13.8744 11.1492,13.8744 L11.2854,13.8744 C11.5014,14.9268 12.0606,15.7908 12.6792,16.3932 L12.5856,17.3238 C12.552,17.6538 12.2844,18.0396 11.9868,18.1866 C11.136,18.6018 10.2978,19.0014 9.7962,19.2084 C8.6142,19.6956 6.1926,20.487 6.1926,22.5186 L6.1926,22.9782 C4.2198,20.8536 3.003,18.0186 3.003,14.898 C3.003,8.3388 8.3394,3.0024 14.8986,3.0024 C21.4584,3.0024 26.7942,8.3388 26.7942,14.898 C26.7918,18.0798 25.5288,20.9676 23.4852,23.106 Z" id="Shape"></path>
                            </g>
                        </g>
                    </g>
                </g>
            </g>
        </g>
    </g>
</svg>