<?xml version="1.0" encoding="UTF-8"?>
<svg width="148px" height="113px" viewBox="0 0 148 113" version="1.1" xmlns="http://www.w3.org/2000/svg" xmlns:xlink="http://www.w3.org/1999/xlink">
    <!-- Generator: Sketch 49 (51002) - http://www.bohemiancoding.com/sketch -->
    <title>Group 9</title>
    <desc>Created with Sketch.</desc>
    <defs>
        <filter x="-0.7%" y="-11.3%" width="101.4%" height="126.8%" filterUnits="objectBoundingBox" id="filter-1">
            <feOffset dx="0" dy="2" in="SourceAlpha" result="shadowOffsetOuter1"></feOffset>
            <feGaussianBlur stdDeviation="4" in="shadowOffsetOuter1" result="shadowBlurOuter1"></feGaussianBlur>
            <feColorMatrix values="0 0 0 0 0   0 0 0 0 0   0 0 0 0 0  0 0 0 0.12 0" type="matrix" in="shadowBlurOuter1" result="shadowMatrixOuter1"></feColorMatrix>
            <feMerge>
                <feMergeNode in="shadowMatrixOuter1"></feMergeNode>
                <feMergeNode in="SourceGraphic"></feMergeNode>
            </feMerge>
        </filter>
    </defs>
    <g id="Desktop" stroke="none" stroke-width="1" fill="none" fill-rule="evenodd">
        <g id="测评列表" transform="translate(0.000000, -54.000000)">
            <g id="Group-10" filter="url(#filter-1)" transform="translate(0.000000, 60.000000)">
                <g transform="translate(-22.000000, -33.000000)" id="Group-9">
                    <g>
                        <circle id="Oval" fill="#FF5200" cx="81" cy="81" r="81"></circle>
                        <g id="review" transform="translate(22.000000, 22.000000)" fill="#FFFFFF" fill-rule="nonzero">
                            <path d="M79.7506448,41.7317073 C58.7870027,41.7317073 41.7317073,58.7870027 41.7317073,79.7506448 C41.7317073,100.714287 58.7870027,118 79.7506448,118 C100.714287,118 118,100.714287 118,79.7506448 C118,58.7870027 100.714287,41.7317073 79.7506448,41.7317073 Z M90.1194459,65.9255766 C90.1194459,64.0151826 91.6653189,62.4693096 93.5757129,62.4693096 C95.4861069,62.4693096 97.03198,64.0151826 97.03198,65.9255766 L97.03198,72.8381107 C97.03198,74.7485047 95.4861069,76.2943777 93.5757129,76.2943777 C91.6653189,76.2943777 90.1194459,74.7485047 90.1194459,72.8381107 L90.1194459,65.9255766 Z M62.4693096,65.9255766 C62.4693096,64.0151826 64.0151826,62.4693096 65.9255766,62.4693096 C67.8359706,62.4693096 69.3818436,64.0151826 69.3818436,65.9255766 L69.3818436,72.8381107 C69.3818436,74.7485047 67.8359706,76.2943777 65.9255766,76.2943777 C64.0151826,76.2943777 62.4693096,74.7485047 62.4693096,72.8381107 L62.4693096,65.9255766 Z M96.8564016,89.9438675 C92.2897512,94.5139742 86.214325,97.03198 79.7506448,97.03198 C73.2869646,97.03198 67.2115384,94.5139742 62.6448879,89.9438675 C61.29487,88.5938496 61.29487,86.4032676 62.6448879,85.0564755 C63.9949058,83.7064576 66.182262,83.7064576 67.5322799,85.0564755 C74.0600163,91.5842118 85.4415036,91.5842118 91.96924,85.0564755 C93.3192579,83.7064576 95.5066141,83.7064576 96.856632,85.0564755 C98.2066499,86.4032676 98.2066499,88.5938496 96.8564016,89.9438675 Z" id="Shape"></path>
                            <path d="M50.4860628,46.0877276 C57.5342063,39.9491784 66.4017693,35.845959 76.2682927,35.0527484 C74.5964311,15.5762539 58.2352797,0 38.3327376,0 C17.3233954,0 0,17.3233954 0,38.3327376 C0,58.2352797 15.5762539,74.5964311 35.0529794,76.2682927 C35.8182486,66.746533 39.6799255,58.1657728 45.4570847,51.2356295 C39.0816115,48.4784434 31.1425783,49.5820106 26.0877372,54.6368517 C24.7347763,55.9898126 22.5426517,55.9898126 21.1896908,54.6368517 C19.8367299,53.2871237 19.8367299,51.0917663 21.1896908,49.7388054 C28.8550837,42.0678704 41.2642684,40.9109606 50.4860628,46.0877276 Z M48.7241424,24.4775313 C48.7241424,22.5629727 50.2733854,21.0137297 52.187944,21.0137297 C54.1025026,21.0137297 55.6517456,22.5629727 55.6517456,24.4775313 L55.6517456,31.4051344 C55.6517456,33.319693 54.1025026,34.868936 52.187944,34.868936 C50.2733854,34.868936 48.7241424,33.319693 48.7241424,31.4051344 L48.7241424,24.4775313 Z M21.0137297,24.4775313 C21.0137297,22.5629727 22.5629727,21.0137297 24.4775313,21.0137297 C26.3920899,21.0137297 27.9413329,22.5629727 27.9413329,24.4775313 L27.9413329,31.4051344 C27.9413329,33.319693 26.3920899,34.868936 24.4775313,34.868936 C22.5629727,34.868936 21.0137297,33.319693 21.0137297,31.4051344 L21.0137297,24.4775313 Z" id="Shape"></path>
                        </g>
                    </g>
                </g>
            </g>
        </g>
    </g>
</svg>