<?xml version="1.0" encoding="UTF-8"?>
<svg width="100px" height="40px" viewBox="0 0 100 40" version="1.1" xmlns="http://www.w3.org/2000/svg" xmlns:xlink="http://www.w3.org/1999/xlink">
    <!-- Generator: Sketch 49 (51002) - http://www.bohemiancoding.com/sketch -->
    <title>Group</title>
    <desc>Created with Sketch.</desc>
    <defs></defs>
    <g id="Symbols" stroke="none" stroke-width="1" fill="none" fill-rule="evenodd">
        <g id="header" transform="translate(-32.000000, -10.000000)" fill="#FFFFFF">
            <g id="Group">
                <g transform="translate(81.780564, 30.000000) scale(-1, 1) rotate(-180.000000) translate(-81.780564, -30.000000) translate(32.000000, 10.000000)">
                    <path d="M50.5210771,18.8077237 L48.7614115,18.8077237 C48.3696874,19.9793851 47.7544314,20.7161876 46.9156436,21.0161249 C48.732655,21.2563756 49.7394679,20.9872011 49.9342433,20.2042545 C50.1022683,19.8753934 50.2972109,19.4079326 50.5210771,18.8077237 M42.8922372,18.8077237 L41.1325716,18.8077237 C41.3559363,19.4079326 41.5512132,19.8753934 41.7192382,20.2042545 C41.9158527,20.9872011 42.9208265,21.2563756 44.7376708,21.0161249 C43.8987157,20.7161876 43.2834597,19.9793851 42.8922372,18.8077237 M45.0310877,28.8613075 L46.7496247,28.8613075 C46.7210354,28.4419972 46.6655286,28.0516106 46.5812653,27.6896461 L50.3956853,27.6896461 L50.3956853,27.2838781 L46.5384649,27.2838781 C46.4829581,26.9242543 46.413073,26.5780056 46.3291441,26.2469711 L49.9757062,26.2469711 L49.9757062,25.8410359 L46.2039194,25.8410359 C46.0914011,25.5409314 45.9108369,25.2256127 45.6585485,24.8944111 L50.8569601,24.8944111 L50.8569601,24.4886431 L48.4248598,24.4886431 C49.2084753,23.557734 50.1149747,22.8802836 51.1500426,22.458967 C50.7033133,22.4300433 50.1576079,22.4149963 49.5157689,22.4149963 C49.4582558,22.2937842 49.3892067,22.1588626 49.3049434,22.0087267 C49.1655077,21.4374415 48.3553091,21.2563756 46.874515,21.4683715 L46.874515,19.8886014 C46.930189,18.6865115 46.3991963,18.1168982 45.2810354,18.1767519 C44.5266781,18.1767519 43.8562497,18.5980685 43.2694158,19.4386954 C43.5767095,19.3193224 43.9135956,19.2576296 44.2760616,19.2576296 C44.8341389,19.1671803 45.0865945,19.5445262 45.0310877,20.3851531 L45.0310877,23.677107 L46.874515,23.677107 L46.874515,21.4683715 C47.266072,21.6776922 47.6149957,22.1588626 47.922958,22.9110464 C47.8671169,22.9110464 47.8099382,22.939803 47.7544314,23.0014958 C47.5308995,23.2111509 47.182143,23.6017047 46.70649,24.1731572 C46.5670542,24.292363 46.4685798,24.3981937 46.413073,24.4886431 L45.3241702,24.4886431 C45.127723,24.2480579 44.7930104,23.8884341 44.3173573,23.4072638 C44.6806593,23.7673892 44.6537418,23.7518406 44.2334284,23.361454 C44.0670752,23.1803881 43.8987157,23.0461353 43.7306907,22.9551844 C44.094327,22.1434812 44.456793,21.6470966 44.8214325,21.4683715 C43.3123835,21.2563756 42.4879739,21.4374415 42.3482037,22.0087267 C42.2642748,22.1280998 42.1948913,22.2802419 42.1390501,22.458967 C41.9158527,22.458967 41.5099175,22.4745156 40.923418,22.5052784 C40.7841495,22.5338678 40.6716312,22.5492492 40.5870335,22.5492492 C41.397232,23.0608479 42.2091024,23.7073683 43.0187993,24.4886431 L40.797859,24.4886431 L40.797859,24.8944111 L43.4376081,24.8944111 C43.7738254,25.2256127 44.0384858,25.5409314 44.2334284,25.8410359 L41.5938464,25.8410359 L41.5938464,26.2469711 L44.5266781,26.2469711 C44.584024,26.397107 44.6248181,26.5184863 44.6537418,26.6087684 C44.7089142,26.8493536 44.7498756,27.0740557 44.7786321,27.2838781 L41.1735329,27.2838781 L41.1735329,27.6896461 L44.8214325,27.6896461 C44.8486844,27.8110254 44.8911504,28.0205134 44.9471588,28.3206179 C44.973909,28.561203 45.002164,28.7422689 45.0310877,28.8613075" id="path22" fill-rule="nonzero"></path>
                    <path d="M58.564195,24.4886431 L60.282732,24.4886431 C60.1436307,23.3169817 59.8644248,21.8743067 59.4442786,20.1601165 C59.3329306,19.2883924 58.5090226,18.8826244 56.9728889,18.9421437 C57.5022096,19.3330319 58.0335367,21.1814749 58.564195,24.4886431 M63.719639,24.4886431 L65.4385104,24.4886431 C65.9691687,21.1814749 66.5004957,19.3330319 67.0316556,18.9421437 C65.4940172,18.8826244 64.6696076,19.2883924 64.558594,20.1601165 C64.1382805,21.8743067 63.8590747,23.3169817 63.719639,24.4886431 M58.8577791,28.9076189 L60.7013736,28.9076189 C60.6458668,28.6075144 60.5208094,28.186365 60.3258668,27.6456754 C60.2967759,27.4953724 60.2683538,27.3895416 60.2416035,27.3300223 C60.5492315,27.7205761 61.0665147,27.9148499 61.7921155,27.9148499 L65.2288552,27.9148499 C66.1784895,27.9457799 66.6399315,27.5839826 66.6115093,26.833805 C66.6115093,26.0217674 66.4864518,25.4352679 66.2343306,25.0753097 L64.2650099,25.0753097 C64.6552293,25.3754142 64.8376327,25.9468666 64.8087089,26.7876608 C64.8376327,27.2399074 64.5301718,27.4495625 63.8881656,27.4186325 L61.5827947,27.4186325 C61.0230455,27.4495625 60.5208094,27.2683295 60.0737456,26.8779429 C60.0449891,26.8184236 60.0185732,26.7431885 59.9898167,26.6529063 C59.9055534,26.443084 59.8500466,26.2931153 59.8216244,26.2028332 C59.7106108,25.3003463 58.7738502,24.8944111 57.0138502,24.9848604 C57.656358,25.4661979 58.271614,26.7739513 58.8577791,28.9076189 M61.2470789,20.1601165 L61.2470789,26.428037 L63.008082,26.428037 L63.008082,19.5731155 C63.0351667,18.6116108 62.5733903,18.1458219 61.6242576,18.1767519 C60.6191166,18.1767519 59.8788031,18.6116108 59.40315,19.4826662 C59.7375283,19.3330319 60.1148742,19.2576296 60.5348532,19.2576296 C61.0374238,19.2290403 61.2755011,19.5289776 61.2470789,20.1601165" id="path26" fill-rule="nonzero"></path>
                    <path d="M77.0033335,22.5053119 L77.0033335,27.3741937 L78.3441903,27.3741937 L78.3441903,22.008593 L78.3441903,21.9183108 C78.3709406,21.8280287 78.4140754,21.7086557 78.4692478,21.5588542 C78.4978371,21.4969942 78.5677222,21.3318114 78.6785686,21.0621353 L78.6785686,27.3300557 C78.7068235,27.9901184 78.483626,28.2918948 78.0078058,28.2303692 L77.5052353,28.2303692 C77.0297494,28.261132 76.7364996,28.0051654 76.6254861,27.4649774 L76.6254861,21.0161583 C76.8762698,21.7685094 77.0033335,22.2647267 77.0033335,22.5053119 Z M81.2355591,20.4754687 L80.1464891,20.4754687 L80.1464891,28.0957819 L81.2355591,28.0957819 L81.2355591,20.4754687 Z M81.5702717,20.2504321 L81.5702717,28.861341 L82.9542633,28.861341 L82.9542633,19.4387289 C82.9542633,18.5670048 82.5627064,18.1304739 81.7812644,18.1304739 C80.91372,18.0709546 80.2720481,18.492104 79.8534066,19.3944238 C80.1877848,19.2730444 80.5509196,19.2135251 80.9424766,19.2135251 C81.4181296,19.123243 81.627116,19.4696589 81.5702717,20.2504321 Z M73.2726753,28.817203 L74.6979626,28.817203 C74.7250472,28.4863358 74.7818915,28.0514768 74.8641486,27.5089481 C74.8641486,27.5706409 74.8785269,27.5089481 74.9072834,27.3300557 C75.018297,26.6972449 75.2005331,26.3219053 75.45232,26.2028666 L75.45232,28.6824486 L76.6254861,28.6824486 L76.6254861,27.9147161 C76.6809929,28.457412 76.9742426,28.7115395 77.5052353,28.6824486 L78.5946396,28.6824486 C79.4330931,28.7115395 79.8393627,28.261132 79.8106062,27.3300557 L79.8106062,21.0621353 L78.6785686,21.0621353 C79.4063428,19.4079661 79.9353292,18.4459598 80.2720481,18.1767853 C79.0147859,18.055406 78.329812,18.2515189 78.2171266,18.7612785 C78.1619542,18.8826578 78.0653188,19.0787707 77.9238768,19.3482796 C77.8131976,19.6194603 77.7145561,19.8137341 77.6306271,19.934779 C77.4644411,19.5731489 77.2965832,19.2135251 77.1280566,18.8517278 C76.9601987,18.3110382 76.2335948,18.086336 74.9480775,18.1767853 C75.2005331,18.3862733 75.5633335,18.8517278 76.0389866,19.5731489 C76.0948278,19.7232848 76.1928006,19.9503276 76.3322363,20.2504321 C76.4432499,20.5505366 76.5271789,20.7755731 76.5826857,20.9258762 L75.45232,20.9258762 L75.45232,22.5492826 C75.172111,22.3086975 74.9912123,21.7375794 74.9072834,20.8372659 C74.7942635,19.9040162 74.6979626,19.0174123 74.6140337,18.1767853 L73.1887463,18.1767853 C73.2171685,18.4172033 73.2442531,18.7612785 73.2726753,19.2135251 C73.3567714,19.8444969 73.412111,20.3562628 73.4407004,20.7466494 C73.4676178,22.0993767 74.1385478,22.7305156 75.45232,22.6397319 L75.45232,23.0901394 C74.0271998,22.9110799 73.3281821,23.3459388 73.3567714,24.3982272 C73.3281821,24.5791258 73.2868864,24.8944445 73.2298749,25.344852 C73.2027902,25.5849356 73.1747025,25.7661686 73.1476178,25.8873807 L74.5708989,25.8873807 C74.6284119,25.4660641 74.6979626,24.9695124 74.7818915,24.3982272 C74.8929051,23.7363254 75.1162698,23.3170151 75.45232,23.1361165 L75.45232,26.1124173 C74.1666356,25.9913724 73.5105854,26.3971404 73.4819961,27.3300557 C73.3977328,27.7495333 73.3281821,28.2457506 73.2726753,28.817203 Z" id="path30" fill-rule="nonzero"></path>
                    <path d="M90.0339539,28.682482 L91.6270991,28.682482 C91.6538493,28.5921999 91.6969841,28.4708206 91.7521565,28.3206848 C91.8628357,27.899201 91.9614773,27.5838823 92.0457406,27.3742271 C92.184842,27.0741226 92.3944972,26.7586367 92.6753749,26.4281038 C91.2209967,26.1875187 90.4522611,26.5337674 90.3683321,27.4648436 C90.2860751,27.674666 90.1874335,28.0051989 90.074748,28.4572783 C90.0483321,28.5458885 90.0339539,28.6211236 90.0339539,28.682482 Z M92.9251555,27.0146033 L94.3507772,27.0146033 C94.4347061,25.7508207 94.4755003,24.7886472 94.4755003,24.1287517 C94.5042568,23.4673516 94.672449,22.9550841 94.980077,22.5956274 C93.7213101,22.5646974 93.0933477,22.9860141 93.0933477,23.857571 C93.0094188,24.8789294 92.9542464,25.9313849 92.9251555,27.0146033 Z M97.6194918,26.9682919 L99.0447791,26.9682919 C99.0447791,26.7282083 99.0305681,26.3816253 99.0036506,25.9313849 C98.9750613,25.0292324 98.9466391,24.3385741 98.9197217,23.857571 C98.8911323,22.9550841 98.2491261,22.5339346 96.9921982,22.5956274 C97.2971512,22.9264947 97.4660122,23.4362544 97.4941,24.1287517 C97.5499411,24.8505072 97.5927416,25.7969649 97.6194918,26.9682919 Z M90.2432747,19.4385951 L90.2432747,24.2171948 C90.2984471,24.9100265 90.1322611,25.2099638 89.7407041,25.1195145 L89.3220626,25.1195145 L89.3220626,25.5719283 L90.8725745,25.5719283 C91.5428357,25.6005176 91.8775484,25.2099638 91.8775484,24.3982606 L91.8775484,20.2502983 C91.8775484,19.8291489 91.9470991,19.6194938 92.0868692,19.6194938 C92.3674125,19.7386996 92.7445912,20.1909462 93.2187396,20.9717194 C93.023797,19.22894 92.3801189,18.326453 91.2908817,18.2669337 C90.5916968,18.2361709 90.2432747,18.6265575 90.2432747,19.4385951 Z M96.7808711,18.1768188 L95.146263,18.1768188 L95.146263,21.4684383 L92.7161691,21.4684383 L92.7161691,21.8742063 L95.146263,21.8742063 L95.146263,27.9612281 L92.8412265,27.9612281 L92.8412265,28.3206848 L99.2537655,28.3206848 L99.2537655,27.9612281 L96.7808711,27.9612281 L96.7808711,21.8742063 L99.5062211,21.8742063 L99.5062211,21.4684383 L96.7808711,21.4684383 L96.7808711,18.1768188 Z" id="path34" fill-rule="nonzero"></path>
                    <path d="M0.119841167,30.1587788 L0.119841167,22.0128229 L16.6832681,31.5844005 L33.2466951,22.0128229 L33.2466951,30.3624151 L16.8190257,39.9339927 L0.119841167,30.1587788 Z M0.0134754438,9.64178032 L7.17953587,5.58510331 L7.17953587,23.0551969 L0.0134754438,19.1777466 L0.0134754438,9.64178032 Z M12.7835148,26.2157904 L12.7826789,2.11731656 L16.8868376,0.0187586171 L20.4847477,2.12333537 L20.4847477,26.1636273 L16.5476109,28.4618091 L12.7835148,26.2157904 Z M33.2467118,9.64178032 L33.2467118,19.1777466 L26.0804842,23.0551969 L26.0804842,5.58510331 L33.2467118,9.64178032 Z" id="Combined-Shape"></path>
                    <path d="M51.7011983,7.04170515 L53.8514177,6.93386816 C53.7499339,6.1459058 53.4030164,5.54101553 52.8086591,5.11953174 C52.2166424,4.69821514 51.4885337,4.48755683 50.6219925,4.48755683 C49.5814073,4.48755683 48.7422851,4.77696121 48.1017835,5.35610436 C47.4617836,5.93357561 47.1417836,6.73140213 47.1417836,7.74958392 C47.1417836,8.75806874 47.4445631,9.57211261 48.0522956,10.1897093 C48.6580218,10.8089778 49.5029956,11.119448 50.589725,11.119448 C51.6033926,11.119448 52.3833299,10.8830426 52.9275305,10.4115692 C53.4718983,9.94026307 53.7806967,9.31464135 53.8514177,8.53604158 L51.6552213,8.43806875 C51.6552213,8.86741043 51.5574156,9.17788065 51.3619715,9.37098409 C51.1646884,9.56224845 50.9324627,9.65721188 50.6681367,9.65721188 C49.9264857,9.65721188 49.5568305,9.03309486 49.5568305,7.78168423 C49.5568305,7.08216492 49.6526299,6.60584309 49.8459005,6.3550594 C50.0376665,6.10243663 50.3078441,5.97687759 50.6566006,5.97687759 C51.2777082,5.97687759 51.6264647,6.33248887 51.7011983,7.04170515" id="path60" fill-rule="nonzero"></path>
                    <polygon id="path64" fill-rule="nonzero" points="58.4727592 9.47852014 58.4727592 4.5870678 56.2437938 4.5870678 56.2437938 9.47852014 54.6551627 9.47852014 54.6551627 11.0195023 60.0613903 11.0195023 60.0613903 9.47852014"></polygon>
                    <polygon id="path68" fill-rule="nonzero" points="64.4912502 9.47852014 64.4912502 4.5870678 62.2622848 4.5870678 62.2622848 9.47852014 60.6733193 9.47852014 60.6733193 11.0195023 66.0798813 11.0195023 66.0798813 9.47852014"></polygon>
                    <polygon id="path72" fill-rule="nonzero" points="72.7328216 6.16509911 72.7328216 4.58716812 67.3605333 4.58716812 67.3605333 11.0194355 69.7123828 11.0194355 69.7123828 6.16509911"></polygon>
                    <polygon id="path76" fill-rule="nonzero" points="79.9297953 6.12330183 79.9297953 4.58716812 74.1647798 4.58716812 74.1647798 11.0194355 79.9297953 11.0194355 79.9297953 9.53496319 76.4723241 9.53496319 76.4723241 8.60188066 79.2682279 8.60188066 79.2682279 7.17358393 76.4723241 7.17358393 76.4723241 6.12330183"></polygon>
                    <path d="M83.8264054,8.42345642 L84.8325496,8.42345642 C85.1276384,8.42345642 85.365047,8.47511786 85.5456112,8.57793918 C85.7236677,8.68243238 85.8137826,8.83541043 85.8137826,9.03620458 C85.8137826,9.44665389 85.512675,9.65263089 84.9111285,9.65263089 L83.8264054,9.65263089 L83.8264054,8.42345642 Z M88.2957052,4.58713468 L85.6853813,4.58713468 L84.5680564,7.04665395 L83.8264054,7.04665395 L83.8264054,4.58713468 L81.4750575,4.58713468 L81.4750575,11.019402 L85.4784012,11.019402 C86.3596551,11.019402 87.0461337,10.8460269 87.5349947,10.4986079 C88.0236885,10.1510217 88.268955,9.69426099 88.268955,9.12481482 C88.268955,8.75482527 88.17884,8.4268002 87.9986101,8.14207712 C87.8183802,7.85902592 87.4562486,7.60790785 86.9098745,7.39089636 L88.2957052,4.58713468 Z" id="path80" fill-rule="nonzero"></path>
                </g>
            </g>
        </g>
    </g>
</svg>